# xmcd
#
# Track frame offsets:
#	182
#	11340
#	24497
#	33897
#	45745
#	55535
#	65730
#	80327
#	90945
#	101362
#	115140
#	128360
#	140535
#	152990
#	166582
#	177022
#	188052
#	200832
#	210645
#	220627
#	231407
#	242667
#	253162
#	266412
#	280562
#	291595
#	303117
#	314442
#
# Disc length: 4369 seconds
#
# Revision: 1
# Processed by: cddbd v1.4PL0 Copyright (c) Steve Scherf et al.
# Submitted via: audiograbber 1.80
#
DISCID=77110f1c
DTITLE=ferlin husky - bop cat bop
DYEAR=1900
DGENRE=
TTITLE0=guilty feeling 1950
TTITLE1=he road to heaven 1950
TTITLE2=cross eyed gal from the ozarks 1951
TTITLE3=if you don't believe i'm leaving 1951
TTITLE4=crying heart blues 1951
TTITLE5=wise guys 1951
TTITLE6=hank's song 1953
TTITLE7=how much are you mine 1953
TTITLE8=i'll never have you 1953
TTITLE9=walkin' and hummin' 1953
TTITLE10=you'll die a thousand deaths 1953
TTITLE11=eli the camel 1954
TTITLE12=homesick 1954
TTITLE13=little tom 1954
TTITLE14=slow down brother 1956
TTITLE15=bop cat bop 1956
TTITLE16=rockin' alone (in an old rockin' chair) 1957
TTITLE17=sioux city sue 1957
TTITLE18=wang dang doo 1957
TTITLE19=whatcha doing after school 1957
TTITLE20=friend of mine 1959
TTITLE21=forgotten heartaches 1959
TTITLE22=missing person 1960
TTITLE23=echoes in my heart 1960
TTITLE24=hard hearted 1960
TTITLE25=let's grow old together 1960
TTITLE26=never again 1960
TTITLE27=tumbling tumbleweeds 1962
EXTD=
EXTT0=
EXTT1=
EXTT2=
EXTT3=
EXTT4=
EXTT5=
EXTT6=
EXTT7=
EXTT8=
EXTT9=
EXTT10=
EXTT11=
EXTT12=
EXTT13=
EXTT14=
EXTT15=
EXTT16=
EXTT17=
EXTT18=
EXTT19=
EXTT20=
EXTT21=
EXTT22=
EXTT23=
EXTT24=
EXTT25=
EXTT26=
EXTT27=
PLAYORDER=
